<?xml version="1.0" encoding="utf-8"?>
<!-- Generator: Adobe Illustrator 26.0.3, SVG Export Plug-In . SVG Version: 6.00 Build 0)  -->
<svg version="1.0" id="katman_1" xmlns="http://www.w3.org/2000/svg" xmlns:xlink="http://www.w3.org/1999/xlink" x="0px" y="0px"
	 viewBox="0 0 800 600" style="enable-background:new 0 0 800 600;" xml:space="preserve">
<style type="text/css">
	.st0{fill:#E37222;}
	.st1{fill:#394A58;}
</style>
<g id="Layer_2">
	<g id="Layer_1-2">
		<g>
			<path class="st0" d="M176.1,355.2h-6.3v-75.7c0-16.1-12.9-29.1-29-29.3h-40.7c-15.9,0-28.8,12.9-28.8,28.8s12.9,28.8,28.8,28.8
				h0.1l3.9,0.1c6.8,0,12.2,5.5,12.2,12.2c0,6.8-5.5,12.2-12.2,12.2H64.9v-6.3h39.2c3.3,0,6-2.7,6-6s-2.7-6-6-6c0,0,0,0,0,0H104
				l-3.9-0.1c-19.4,0-35.2-15.6-35.3-35c0.1-19.4,15.9-35.1,35.3-35h40.6c19.5,0.2,35.2,16,35.3,35.5V355.2z"/>
			<path class="st0" d="M164.4,355.2h-6.3v-75.7c0-9.6-7.7-17.5-17.3-17.7h-40.7c-9.5,0-17.3,7.7-17.3,17.3
				c0,9.5,7.7,17.3,17.3,17.3h0.3l3.7,0.4c13,0,23.4,10.6,23.4,23.6c0,13-10.6,23.4-23.6,23.4H64.9v-6.3h39.2
				c9.5,0,17.3-7.7,17.3-17.3s-7.7-17.3-17.3-17.3h-0.3l-3.7-0.4c-13,0-23.4-10.6-23.4-23.6c0-13,10.6-23.4,23.6-23.4h40.6
				c13.1,0.2,23.6,10.9,23.6,24V355.2z"/>
			<path class="st0" d="M104.1,355.2H64.9v-6.3h39.2c15.9,0,28.8-12.9,28.8-28.8c0-15.9-12.9-28.8-28.8-28.8H104l-3.9-0.1
				c-6.8,0-12.2-5.5-12.2-12.2c0-6.8,5.5-12.2,12.2-12.2h40.7c6.8,0.2,12.3,5.9,12.2,12.7v75.7h-6.3v-75.7c0.1-3.4-2.6-6.3-6-6.5
				h-40.7c-3.3,0-6,2.7-6,6c0,3.3,2.7,6,6,6c0,0,0,0,0,0h0.1l3.9,0.1c19.3,0,35,15.7,35,35C139.2,339.5,123.5,355.1,104.1,355.2"/>
			<path class="st1" d="M194.7,348.8c0,2.3,1,4.1,4.1,4.1c2.8,0,4.3-1.3,4.3-3.4c0-4.9-11.5-2.3-11.5-9.4c0-3.3,3.1-5.5,7.1-5.5
				c4.6,0,7.3,2.1,7.4,5.8h-3.4c0-1.9-1.5-3.5-3.3-3.5c-0.2,0-0.3,0-0.5,0c-2.2,0-3.7,1.3-3.7,3c0,4.7,11.5,1.9,11.5,9.4
				c0,3.8-3.5,5.8-7.5,5.8c-5.5,0-7.9-2.6-7.9-6.4L194.7,348.8z"/>
			<polygon class="st1" points="252.5,335 256.2,335 249.3,346.9 249.3,354.9 245.9,354.9 245.9,346.9 239,335 242.7,335 
				247.6,343.8 			"/>
			<path class="st1" d="M292.1,348.8c0,2.3,1,4.1,4.1,4.1c2.8,0,4.2-1.3,4.2-3.4c0-4.9-11.5-2.3-11.5-9.4c0-3.3,3.1-5.5,7.1-5.5
				c4.6,0,7.3,2.1,7.4,5.8H300c0-1.9-1.5-3.5-3.3-3.5c-0.2,0-0.3,0-0.5,0c-2.2,0-3.7,1.3-3.7,3c0,4.7,11.5,1.9,11.5,9.4
				c0,3.8-3.5,5.8-7.5,5.8c-5.5,0-7.9-2.6-7.9-6.4L292.1,348.8z"/>
			<polygon class="st1" points="352,335 352,337.6 346.7,337.6 346.7,354.9 343.2,354.9 343.2,337.6 337.9,337.6 337.9,335 			"/>
			<polygon class="st1" points="387.4,354.9 387.4,335 399.9,335 399.9,337.6 390.9,337.6 390.9,343.3 399.9,343.3 399.9,345.8 
				390.9,345.8 390.9,352.4 399.9,352.4 399.9,354.9 			"/>
			<polygon class="st1" points="432.3,354.9 432.3,335 437.2,335 442.5,349.5 442.5,349.5 447.3,335 452.3,335 452.3,354.9 
				449,354.9 449,339.7 448.9,339.7 443.8,354.9 441.1,354.9 435.7,339.7 435.6,339.7 435.6,354.9 			"/>
			<path class="st1" d="M486.8,348.8c0,2.3,1,4.1,4.1,4.1c2.8,0,4.2-1.3,4.2-3.4c0-4.9-11.5-2.3-11.5-9.4c0-3.3,3.1-5.5,7.1-5.5
				c4.6,0,7.3,2.1,7.4,5.8h-3.4c0-1.9-1.5-3.5-3.3-3.5c-0.2,0-0.3,0-0.5,0c-2.2,0-3.7,1.3-3.7,3c0,4.7,11.5,1.9,11.5,9.4
				c0,3.8-3.5,5.8-7.5,5.8c-5.5,0-7.9-2.6-7.9-6.4L486.8,348.8z"/>
			<polygon class="st1" points="550.9,320.8 518.2,269.8 518.1,269.8 518.1,320.8 508.4,320.8 508.4,254.8 518.9,254.8 551,305 
				551.2,305 551.2,254.8 560.8,254.8 560.8,320.8 			"/>
			<path class="st1" d="M593.1,322c-14.6,0.1-26.5-11.7-26.7-26.2c0-13.5,11.3-25.7,26.7-25.7c14.5-0.2,26.4,11.3,26.7,25.8
				c0,0,0,0,0,0.1C619.6,310.5,607.7,322.1,593.1,322 M593.1,278.6c-9.7-0.1-17.6,7.7-17.7,17.4c-0.1,9.7,7.7,17.6,17.4,17.7
				c9.7,0.1,17.6-7.7,17.7-17.4c0-0.1,0-0.2,0-0.3C610.5,286.3,602.7,278.5,593.1,278.6"/>
			<polygon class="st1" points="643.4,320.8 636.9,320.8 617.3,271.4 627.2,271.4 640.1,306.7 640.3,306.7 653,271.4 662.9,271.4 
							"/>
			<path class="st1" d="M703.4,320.8V313h-0.2c-3.6,6.1-10.1,8.9-16.8,8.9c-16.7,0-26.2-12.8-26.2-25.8c0-12,8.5-26.2,26.2-26.2
				c6.9,0,13.2,2.9,16.8,8.3h0.2v-6.9h9.3v49.4H703.4z M686.5,278.5c-11.4,0-16.9,9.9-16.9,17.7c0,8.9,7,17.4,16.8,17.4
				c9.5,0,17.2-7.8,17.2-17.3c0,0,0,0,0-0.1C703.6,285.7,696,278.5,686.5,278.5"/>
			<path class="st1" d="M200.8,301.2c0,2.2,1,11.9,10.6,11.9c6,0,10.5-4.1,10.5-11c0-7.3-6-8.9-10.5-10.7
				c-8.8-3.4-10.9-4.4-13.9-7.3c-3-2.9-4.4-7.7-4.4-12.4c0.1-9.9,8.2-17.9,18.1-17.8c0.1,0,0.1,0,0.2,0c10.9,0,18.8,7.2,18.8,18.2
				h-9.6c0-7.3-5.3-9.5-9.2-9.5c-4.9,0.1-8.8,4.1-8.8,9c0,6.3,5.9,8,8.8,9c8.3,3.1,20.1,5.7,20.1,21.4c0,11.4-8.1,19.8-20.1,19.8
				c-9,0-20.2-6-20.2-20.6L200.8,301.2z"/>
			<path class="st1" d="M280,320.6V313h-0.2c-3.5,6-10,8.9-16.7,8.9c-16.6,0-26-12.7-26-25.6c0-12,8.4-26,26-26
				c6.8,0,13.1,2.8,16.7,8.3h0.2v-6.9h9.2v49H280z M263.2,278.7c-11.3,0-16.8,9.8-16.8,17.5c0,8.9,7,17.3,16.7,17.3
				c9.5,0,17.1-7.7,17.1-17.2c0,0,0-0.1,0-0.1C280.2,285.7,272.7,278.7,263.2,278.7"/>
			<path class="st1" d="M366.1,320.6v-27.3c0-4.1-0.5-14.7-11.6-14.7c-11.8,0-11.6,10.5-11.7,14.6v27.4h-9.2v-27.3
				c0.1-4.1-0.1-6.8-2-10.1c-2-3-5.5-4.8-9.1-4.6c-12.1,0-12.1,11-12.1,14.6v27.4h-9.2v-49h8.5v5.3h0.2c1.8-2.1,5-6.7,14.1-6.7
				c5.9,0,12.7,2.8,15.2,8.3c1.6-2.5,5.2-8.3,16.2-8.3c8.3,0,14.1,3.4,17.3,8.9c1.9,3.7,2.9,7.8,2.8,12v29.6H366.1z"/>
			<path class="st1" d="M387.1,320.6v-65.6h9.2v23.3h0.2c3.9-5.3,10.2-8.4,16.8-8.2c14.1,0.2,25.5,11.7,25.4,25.9
				c0.3,14-10.8,25.5-24.8,25.8c-0.1,0-0.3,0-0.4,0c-6.7,0-13-3-17.1-8.3h-0.1v7H387.1z M412.8,313.5c9.4-0.3,16.8-8,16.7-17.4
				c0-9.2-7.1-17.5-16.7-17.5c-10.1,0-16.7,8.6-16.7,17.3c-0.4,9.3,6.9,17.2,16.3,17.5C412.5,313.5,412.6,313.5,412.8,313.5"/>
			<path class="st1" d="M489.5,320.6V313h-0.2c-3.5,6-10,8.9-16.7,8.9c-16.6,0-26-12.7-26-25.6c0-12,8.4-26,26-26
				c6.8,0,13.1,2.8,16.7,8.3h0.2v-6.9h9.2v49H489.5z M472.7,278.7c-11.3,0-16.8,9.8-16.8,17.5c0,8.9,7,17.3,16.7,17.3
				c9.5,0,17.1-7.7,17.1-17.2c0,0,0-0.1,0-0.1C489.7,285.7,482.2,278.7,472.7,278.7"/>
			<path class="st1" d="M726.8,270.9c4.2-0.2,7.7,3.1,7.9,7.2c0.2,4.2-3.1,7.7-7.2,7.9c-0.2,0-0.4,0-0.6,0c-4.2,0.2-7.7-3.1-7.9-7.2
				c-0.2-4.2,3.1-7.7,7.2-7.9C726.3,270.9,726.6,270.9,726.8,270.9z M726.7,272.5c-3.3,0.2-5.9,3-5.7,6.3c0.2,3.1,2.7,5.6,5.8,5.7
				c3.2,0,5.8-2.6,5.7-5.8c0-0.1,0-0.1,0-0.2c0.1-3.2-2.4-5.9-5.6-6.1C726.8,272.5,726.8,272.5,726.7,272.5L726.7,272.5z
				 M725.5,282.4h-1.7v-7.5c1-0.1,1.9-0.2,2.9-0.2c0.9-0.1,1.8,0.1,2.6,0.6c0.5,0.4,0.8,1,0.8,1.6c-0.1,0.9-0.7,1.6-1.6,1.8v0.1
				c0.7,0.2,1.1,0.8,1.4,1.8c0.1,0.6,0.3,1.3,0.6,1.8h-1.8c-0.3-0.6-0.5-1.2-0.6-1.8c-0.1-0.8-0.6-1.1-1.6-1.1h-0.8L725.5,282.4z
				 M725.5,278.1h0.8c1,0,1.7-0.3,1.7-1.1s-0.5-1.1-1.6-1.1c-0.3,0-0.6,0-1,0.1V278.1z"/>
		</g>
	</g>
</g>
</svg>
